<svg xmlns="http://www.w3.org/2000/svg" width="640" height="680" viewBox="0 0 640 680">
<defs><linearGradient id="g" x1="0" y1="0" x2="1" y2="1"><stop stop-color="#f3e7eb"/><stop offset="1" stop-color="#fff"/></linearGradient><filter id="s"><feDropShadow dx="0" dy="18" stdDeviation="16" flood-opacity=".14"/></filter></defs>
<rect width="640" height="680" fill="url(#g)"/><circle cx="530" cy="90" r="150" fill="#a75f74" opacity=".09"/><circle cx="90" cy="600" r="180" fill="#a75f74" opacity=".07"/>
<g filter="url(#s)"><g transform="translate(150 0)"><rect x="0" y="170" width="88" height="210" rx="18" fill="#ead4dc" stroke="#a75f74" stroke-width="3"/><rect x="16" y="108" width="56" height="78" rx="12" fill="#211b22"/><rect x="15" y="235" width="58" height="54" rx="10" fill="#fff" opacity=".75"/><text x="44" y="268" text-anchor="middle" font-size="12" fill="#5b4a52" font-family="Arial">GEL</text></g><g transform="translate(256 0)"><rect x="0" y="170" width="88" height="210" rx="18" fill="#9d5169" stroke="#a75f74" stroke-width="3"/><rect x="16" y="108" width="56" height="78" rx="12" fill="#211b22"/><rect x="15" y="235" width="58" height="54" rx="10" fill="#fff" opacity=".75"/><text x="44" y="268" text-anchor="middle" font-size="12" fill="#5b4a52" font-family="Arial">GEL</text></g><g transform="translate(362 0)"><rect x="0" y="170" width="88" height="210" rx="18" fill="#f2bfca" stroke="#a75f74" stroke-width="3"/><rect x="16" y="108" width="56" height="78" rx="12" fill="#211b22"/><rect x="15" y="235" width="58" height="54" rx="10" fill="#fff" opacity=".75"/><text x="44" y="268" text-anchor="middle" font-size="12" fill="#5b4a52" font-family="Arial">GEL</text></g></g><text x="40" y="615" font-family="Georgia" font-size="34" fill="#342b32">Gel Polish</text><text x="40" y="644" font-family="Arial" font-size="13" letter-spacing="3" fill="#a75f74">PRIVATE LABEL COLLECTION</text></svg>