<svg xmlns="http://www.w3.org/2000/svg" width="640" height="680" viewBox="0 0 640 680">
<defs><linearGradient id="g" x1="0" y1="0" x2="1" y2="1"><stop stop-color="#e8f2f6"/><stop offset="1" stop-color="#fff"/></linearGradient><filter id="s"><feDropShadow dx="0" dy="18" stdDeviation="16" flood-opacity=".14"/></filter></defs>
<rect width="640" height="680" fill="url(#g)"/><circle cx="530" cy="90" r="150" fill="#80b7c9" opacity=".09"/><circle cx="90" cy="600" r="180" fill="#80b7c9" opacity=".07"/>
<g filter="url(#s)"><path d="M130,329 C124,274 121,190 135,163 C147,143 169,143 181,163 C195,190 192,274 186,329 Z" fill="#ffed9b" stroke="#80b7c9" stroke-width="3"/><path d="M142,178 C153,163 163,163 174,178" fill="none" stroke="white" opacity=".55" stroke-width="5" stroke-linecap="round"/><path d="M205,362 C199,307 196,205 210,178 C222,158 244,158 256,178 C270,205 267,307 261,362 Z" fill="#ffed9b" stroke="#80b7c9" stroke-width="3"/><path d="M217,193 C228,178 238,178 249,193" fill="none" stroke="white" opacity=".55" stroke-width="5" stroke-linecap="round"/><path d="M280,365 C274,310 271,190 285,163 C297,143 319,143 331,163 C345,190 342,310 336,365 Z" fill="#ffed9b" stroke="#80b7c9" stroke-width="3"/><path d="M292,178 C303,163 313,163 324,178" fill="none" stroke="white" opacity=".55" stroke-width="5" stroke-linecap="round"/><path d="M355,362 C349,307 346,205 360,178 C372,158 394,158 406,178 C420,205 417,307 411,362 Z" fill="#ffed9b" stroke="#80b7c9" stroke-width="3"/><path d="M367,193 C378,178 388,178 399,193" fill="none" stroke="white" opacity=".55" stroke-width="5" stroke-linecap="round"/><path d="M430,329 C424,274 421,190 435,163 C447,143 469,143 481,163 C495,190 492,274 486,329 Z" fill="#ffed9b" stroke="#80b7c9" stroke-width="3"/><path d="M442,178 C453,163 463,163 474,178" fill="none" stroke="white" opacity=".55" stroke-width="5" stroke-linecap="round"/><g fill="#ff8fa3"><circle cx="310" cy="240" r="13"/><circle cx="390" cy="280" r="10"/></g><g fill="#73c5d8"><path d="M168 235l8 16 18 2-13 12 4 18-17-9-16 9 3-18-13-12 18-2z"/></g></g><text x="40" y="615" font-family="Georgia" font-size="34" fill="#342b32">Kids</text><text x="40" y="644" font-family="Arial" font-size="13" letter-spacing="3" fill="#80b7c9">PRIVATE LABEL COLLECTION</text></svg>